<?xml version="1.0" encoding="UTF-8"?>
<svg xmlns="http://www.w3.org/2000/svg" xmlns:xlink="http://www.w3.org/1999/xlink" width="0" height="0">
<symbol id="chevron-left" width="20" height="20" viewBox="0 0 20 20" fill="none">
<path d="M12.5 5L7.5 10L12.5 15" stroke="#C4C8CF" stroke-width="2" stroke-linecap="round" stroke-linejoin="round"/>
</symbol>

<symbol id="arrow-left" width="32" height="32" viewBox="0 0 32 32" fill="none">
<g clip-path="url(#clip0_595_6684)">
<path d="M4.63648 15.2698C4.38651 15.5198 4.24609 15.8589 4.24609 16.2125C4.24609 16.566 4.38651 16.9051 4.63648 17.1551L12.1791 24.6978C12.3021 24.8252 12.4493 24.9267 12.6119 24.9966C12.7746 25.0665 12.9496 25.1033 13.1266 25.1048C13.3036 25.1063 13.4792 25.0726 13.6431 25.0056C13.8069 24.9385 13.9558 24.8395 14.081 24.7143C14.2062 24.5891 14.3052 24.4403 14.3722 24.2764C14.4393 24.1126 14.473 23.937 14.4715 23.7599C14.4699 23.5829 14.4332 23.4079 14.3633 23.2453C14.2934 23.0826 14.1918 22.9355 14.0645 22.8125L8.79781 17.5458H26.4551C26.8088 17.5458 27.1479 17.4053 27.398 17.1553C27.648 16.9052 27.7885 16.5661 27.7885 16.2125C27.7885 15.8589 27.648 15.5197 27.398 15.2697C27.1479 15.0196 26.8088 14.8791 26.4551 14.8791L8.79781 14.8791L14.0645 9.61247C14.3074 9.361 14.4417 9.0242 14.4387 8.67461C14.4357 8.32501 14.2954 7.99059 14.0482 7.74338C13.801 7.49617 13.4666 7.35595 13.117 7.35291C12.7674 7.34987 12.4306 7.48426 12.1791 7.72714L4.63648 15.2698Z" fill="#5B89F8"/>
</g>
<defs>
<clipPath>
<rect width="32" height="32" fill="white" transform="matrix(-1 0 0 1 32 0)"/>
</clipPath>
</defs>
</symbol>

<symbol id="chevron-down" width="24" height="24" viewBox="0 0 24 24" fill="none">
<path d="M6 9L12 15L18 9" stroke="#C4C8CF" stroke-width="1.5" stroke-linecap="round" stroke-linejoin="round"/>
</symbol>

<symbol id="close" width="24" height="24" viewBox="0 0 24 24" fill="none">
<path d="M18.2121 5.7978C18.1208 5.7064 18.0125 5.63387 17.8932 5.58439C17.7739 5.53491 17.646 5.50944 17.5169 5.50944C17.3878 5.50944 17.2599 5.53491 17.1406 5.58439C17.0213 5.63387 16.913 5.7064 16.8217 5.7978L12 10.6097L7.17826 5.78794C7.08697 5.69665 6.9786 5.62424 6.85932 5.57483C6.74004 5.52543 6.61221 5.5 6.4831 5.5C6.354 5.5 6.22616 5.52543 6.10689 5.57483C5.98761 5.62424 5.87923 5.69665 5.78794 5.78794C5.69665 5.87923 5.62424 5.98761 5.57483 6.10689C5.52543 6.22616 5.5 6.354 5.5 6.4831C5.5 6.61221 5.52543 6.74004 5.57483 6.85932C5.62424 6.9786 5.69665 7.08697 5.78794 7.17826L10.6097 12L5.78794 16.8217C5.69665 16.913 5.62424 17.0214 5.57483 17.1407C5.52543 17.26 5.5 17.3878 5.5 17.5169C5.5 17.646 5.52543 17.7738 5.57483 17.8931C5.62424 18.0124 5.69665 18.1208 5.78794 18.2121C5.87923 18.3033 5.98761 18.3758 6.10689 18.4252C6.22616 18.4746 6.354 18.5 6.4831 18.5C6.61221 18.5 6.74004 18.4746 6.85932 18.4252C6.9786 18.3758 7.08697 18.3033 7.17826 18.2121L12 13.3903L16.8217 18.2121C16.913 18.3033 17.0214 18.3758 17.1407 18.4252C17.26 18.4746 17.3878 18.5 17.5169 18.5C17.646 18.5 17.7738 18.4746 17.8931 18.4252C18.0124 18.3758 18.1208 18.3033 18.2121 18.2121C18.3033 18.1208 18.3758 18.0124 18.4252 17.8931C18.4746 17.7738 18.5 17.646 18.5 17.5169C18.5 17.3878 18.4746 17.26 18.4252 17.1407C18.3758 17.0214 18.3033 16.913 18.2121 16.8217L13.3903 12L18.2121 7.17826C18.5868 6.80357 18.5868 6.1725 18.2121 5.7978Z" fill="#ECECEE"/>
</symbol>
  <symbol fill="none" xmlns="http://www.w3.org/2000/svg" viewBox="0 0 32 32" id="arrow_left">
    <g clip-path="url(#clip0_595_6786)">
      <path d="M4.63648 15.2699C4.38651 15.5199 4.24609 15.859 4.24609 16.2125C4.24609 16.5661 4.38651 16.9052 4.63648 17.1552L12.1791 24.6979C12.3021 24.8252 12.4493 24.9268 12.6119 24.9967C12.7746 25.0665 12.9496 25.1033 13.1266 25.1049C13.3036 25.1064 13.4792 25.0727 13.6431 25.0056C13.8069 24.9386 13.9558 24.8396 14.081 24.7144C14.2062 24.5892 14.3052 24.4403 14.3722 24.2765C14.4393 24.1126 14.473 23.937 14.4715 23.76C14.4699 23.583 14.4332 23.408 14.3633 23.2453C14.2934 23.0827 14.1918 22.9355 14.0645 22.8125L8.79781 17.5459H26.4551C26.8088 17.5459 27.1479 17.4054 27.398 17.1553C27.648 16.9053 27.7885 16.5662 27.7885 16.2125C27.7885 15.8589 27.648 15.5198 27.398 15.2697C27.1479 15.0197 26.8088 14.8792 26.4551 14.8792L8.79781 14.8792L14.0645 9.61253C14.3074 9.36106 14.4417 9.02426 14.4387 8.67467C14.4357 8.32507 14.2954 7.99065 14.0482 7.74344C13.801 7.49623 13.4666 7.35601 13.117 7.35297C12.7674 7.34993 12.4306 7.48432 12.1791 7.7272L4.63648 15.2699Z" fill="#5B89F8"></path>
    </g>
    <defs>
      <clipPath id="clip0_595_6786">
        <rect width="32" height="32" fill="white" transform="matrix(-1 0 0 1 32 0)"></rect>
      </clipPath>
    </defs>
  </symbol>


<symbol id='true-icon' width="24" height="24" viewBox="0 0 24 24" fill="none" xmlns="http://www.w3.org/2000/svg">
    <path d="M5 12L10 17L20 7" stroke="white" stroke-width="1.5" stroke-linecap="round" stroke-linejoin="round"/>
</symbol>
<symbol  id='false-icon' width="24" height="24" viewBox="0 0 24 24" fill="none" xmlns="http://www.w3.org/2000/svg">
  <path d="M3 3L21 21M9 5H18C18.7956 5 19.5587 5.31607 20.1213 5.87868C20.6839 6.44129 21 7.20435 21 8V16C21.0003 16.2947 20.9572 16.5879 20.872 16.87M18.87 18.872C18.5879 18.9572 18.2947 19.0003 18 19H6C5.20435 19 4.44129 18.6839 3.87868 18.1213C3.31607 17.5587 3 16.7957 3 16V8C3 6.648 3.894 5.505 5.124 5.13M3 11H11M15 11H21M7 15H7.01M11 15H13" stroke="white" stroke-width="2" stroke-linecap="round" stroke-linejoin="round" />
</symbol>

<symbol id='gift' width="24" height="24" viewBox="0 0 24 24" fill="none" xmlns="http://www.w3.org/2000/svg">
  <path d="M20.25 6.93772H16.3819C16.5804 6.8131 16.7685 6.67264 16.9444 6.51772C17.2096 6.2814 17.4233 5.99292 17.572 5.67031C17.7207 5.3477 17.8013 4.99788 17.8088 4.64272C17.8203 4.25202 17.7519 3.86308 17.6078 3.49973C17.4637 3.13638 17.247 2.80628 16.9709 2.52963C16.6947 2.25298 16.365 2.03561 16.002 1.89084C15.6389 1.74608 15.2501 1.67696 14.8594 1.68772C14.5042 1.69516 14.1544 1.77576 13.8318 1.92448C13.5092 2.0732 13.2207 2.28686 12.9844 2.55209C12.5501 3.06457 12.2162 3.65421 12 4.29022C11.7843 3.65468 11.451 3.06538 11.0175 2.55303C10.781 2.28739 10.4923 2.07343 10.1694 1.92454C9.84639 1.77564 9.49618 1.69502 9.14062 1.68772C8.74967 1.67644 8.36054 1.74515 7.99709 1.88963C7.63364 2.0341 7.30353 2.2513 7.02702 2.52791C6.7505 2.80451 6.53341 3.13468 6.38905 3.49818C6.24469 3.86168 6.1761 4.25083 6.1875 4.64178C6.19494 4.99694 6.27554 5.34676 6.42426 5.66937C6.57299 5.99198 6.78664 6.28046 7.05188 6.51678C7.22758 6.67192 7.41571 6.81239 7.61438 6.93678H3.75C3.57756 6.93678 3.40681 6.97076 3.24751 7.03678C3.08821 7.1028 2.94348 7.19956 2.82159 7.32153C2.6997 7.44351 2.60304 7.58831 2.53714 7.74766C2.47124 7.90701 2.43738 8.07778 2.4375 8.25022V11.2502C2.4375 11.5983 2.57578 11.9322 2.82192 12.1783C3.06806 12.4244 3.4019 12.5627 3.75 12.5627H3.9375V18.7502C3.9375 19.0983 4.07578 19.4322 4.32192 19.6783C4.56806 19.9244 4.9019 20.0627 5.25 20.0627H18.75C19.0981 20.0627 19.4319 19.9244 19.6781 19.6783C19.9242 19.4322 20.0625 19.0983 20.0625 18.7502V12.5627H20.25C20.5981 12.5627 20.9319 12.4244 21.1781 12.1783C21.4242 11.9322 21.5625 11.5983 21.5625 11.2502V8.25022C21.5625 7.90212 21.4242 7.56828 21.1781 7.32214C20.9319 7.076 20.5981 6.93772 20.25 6.93772ZM12.7284 5.90647C12.9394 4.77022 13.3181 3.8674 13.8244 3.29553C13.9598 3.14602 14.1247 3.02599 14.3085 2.94293C14.4924 2.85987 14.6914 2.81554 14.8931 2.81272H14.9447C15.1779 2.81274 15.4088 2.85956 15.6236 2.9504C15.8384 3.04123 16.0328 3.17424 16.1953 3.34155C16.3578 3.50886 16.4851 3.70707 16.5697 3.92445C16.6542 4.14183 16.6943 4.37395 16.6875 4.60709C16.6843 4.80904 16.6396 5.00817 16.556 5.19205C16.4724 5.37593 16.3519 5.54062 16.2019 5.67584C15.1969 6.56272 13.4925 6.82803 12.5944 6.9049C12.6178 6.63397 12.6562 6.28897 12.7284 5.90647ZM7.82344 3.32365C8.15066 2.99762 8.59339 2.81399 9.05531 2.81272H9.10687C9.30882 2.8159 9.50795 2.86066 9.69183 2.94422C9.87571 3.02777 10.0404 3.14832 10.1756 3.29834C11.0625 4.30334 11.3278 6.00772 11.4047 6.90584C11.1337 6.88241 10.7887 6.84209 10.41 6.77178C9.27375 6.56272 8.37094 6.18209 7.79906 5.6749C7.64881 5.54001 7.52803 5.37554 7.4443 5.1918C7.36058 5.00805 7.31571 4.80899 7.3125 4.60709C7.30603 4.36968 7.348 4.13343 7.43584 3.91277C7.52369 3.69211 7.65557 3.49167 7.82344 3.32365ZM3.5625 11.2502V8.25022C3.5625 8.20049 3.58225 8.1528 3.61742 8.11764C3.65258 8.08247 3.70027 8.06272 3.75 8.06272H11.4375V11.4377H3.75C3.70027 11.4377 3.65258 11.418 3.61742 11.3828C3.58225 11.3476 3.5625 11.2999 3.5625 11.2502ZM5.0625 18.7502V12.5627H11.4375V18.9377H5.25C5.20027 18.9377 5.15258 18.918 5.11742 18.8828C5.08225 18.8476 5.0625 18.7999 5.0625 18.7502ZM18.9375 18.7502C18.9375 18.7999 18.9177 18.8476 18.8826 18.8828C18.8474 18.918 18.7997 18.9377 18.75 18.9377H12.5625V12.5627H18.9375V18.7502ZM20.4375 11.2502C20.4375 11.2999 20.4177 11.3476 20.3826 11.3828C20.3474 11.418 20.2997 11.4377 20.25 11.4377H12.5625V8.06272H20.25C20.2997 8.06272 20.3474 8.08247 20.3826 8.11764C20.4177 8.1528 20.4375 8.20049 20.4375 8.25022V11.2502Z" fill="#5E6573" />
</symbol>
</svg>


