<?xml version="1.0" encoding="UTF-8"?>
<svg xmlns="http://www.w3.org/2000/svg" xmlns:xlink="http://www.w3.org/1999/xlink" width="0" height="0">
<symbol id="chevron-left" width="20" height="20" viewBox="0 0 20 20" fill="none">
<path d="M12.5 5L7.5 10L12.5 15" stroke="#C4C8CF" stroke-width="2" stroke-linecap="round" stroke-linejoin="round"/>
</symbol>

<symbol id="arrow-left" width="32" height="32" viewBox="0 0 32 32" fill="none">
<g clip-path="url(#clip0_595_6684)">
<path d="M4.63648 15.2698C4.38651 15.5198 4.24609 15.8589 4.24609 16.2125C4.24609 16.566 4.38651 16.9051 4.63648 17.1551L12.1791 24.6978C12.3021 24.8252 12.4493 24.9267 12.6119 24.9966C12.7746 25.0665 12.9496 25.1033 13.1266 25.1048C13.3036 25.1063 13.4792 25.0726 13.6431 25.0056C13.8069 24.9385 13.9558 24.8395 14.081 24.7143C14.2062 24.5891 14.3052 24.4403 14.3722 24.2764C14.4393 24.1126 14.473 23.937 14.4715 23.7599C14.4699 23.5829 14.4332 23.4079 14.3633 23.2453C14.2934 23.0826 14.1918 22.9355 14.0645 22.8125L8.79781 17.5458H26.4551C26.8088 17.5458 27.1479 17.4053 27.398 17.1553C27.648 16.9052 27.7885 16.5661 27.7885 16.2125C27.7885 15.8589 27.648 15.5197 27.398 15.2697C27.1479 15.0196 26.8088 14.8791 26.4551 14.8791L8.79781 14.8791L14.0645 9.61247C14.3074 9.361 14.4417 9.0242 14.4387 8.67461C14.4357 8.32501 14.2954 7.99059 14.0482 7.74338C13.801 7.49617 13.4666 7.35595 13.117 7.35291C12.7674 7.34987 12.4306 7.48426 12.1791 7.72714L4.63648 15.2698Z" fill="#5B89F8"/>
</g>
<defs>
<clipPath>
<rect width="32" height="32" fill="white" transform="matrix(-1 0 0 1 32 0)"/>
</clipPath>
</defs>
</symbol>

<symbol id="chevron-down" width="24" height="24" viewBox="0 0 24 24" fill="none">
<path d="M6 9L12 15L18 9" stroke="#C4C8CF" stroke-width="1.5" stroke-linecap="round" stroke-linejoin="round"/>
</symbol>

<symbol id="close" width="24" height="24" viewBox="0 0 24 24" fill="none">
<path d="M18.2121 5.7978C18.1208 5.7064 18.0125 5.63387 17.8932 5.58439C17.7739 5.53491 17.646 5.50944 17.5169 5.50944C17.3878 5.50944 17.2599 5.53491 17.1406 5.58439C17.0213 5.63387 16.913 5.7064 16.8217 5.7978L12 10.6097L7.17826 5.78794C7.08697 5.69665 6.9786 5.62424 6.85932 5.57483C6.74004 5.52543 6.61221 5.5 6.4831 5.5C6.354 5.5 6.22616 5.52543 6.10689 5.57483C5.98761 5.62424 5.87923 5.69665 5.78794 5.78794C5.69665 5.87923 5.62424 5.98761 5.57483 6.10689C5.52543 6.22616 5.5 6.354 5.5 6.4831C5.5 6.61221 5.52543 6.74004 5.57483 6.85932C5.62424 6.9786 5.69665 7.08697 5.78794 7.17826L10.6097 12L5.78794 16.8217C5.69665 16.913 5.62424 17.0214 5.57483 17.1407C5.52543 17.26 5.5 17.3878 5.5 17.5169C5.5 17.646 5.52543 17.7738 5.57483 17.8931C5.62424 18.0124 5.69665 18.1208 5.78794 18.2121C5.87923 18.3033 5.98761 18.3758 6.10689 18.4252C6.22616 18.4746 6.354 18.5 6.4831 18.5C6.61221 18.5 6.74004 18.4746 6.85932 18.4252C6.9786 18.3758 7.08697 18.3033 7.17826 18.2121L12 13.3903L16.8217 18.2121C16.913 18.3033 17.0214 18.3758 17.1407 18.4252C17.26 18.4746 17.3878 18.5 17.5169 18.5C17.646 18.5 17.7738 18.4746 17.8931 18.4252C18.0124 18.3758 18.1208 18.3033 18.2121 18.2121C18.3033 18.1208 18.3758 18.0124 18.4252 17.8931C18.4746 17.7738 18.5 17.646 18.5 17.5169C18.5 17.3878 18.4746 17.26 18.4252 17.1407C18.3758 17.0214 18.3033 16.913 18.2121 16.8217L13.3903 12L18.2121 7.17826C18.5868 6.80357 18.5868 6.1725 18.2121 5.7978Z" fill="#ECECEE"/>
</symbol>

</svg>
