<svg width="48" height="48" viewBox="0 0 48 48" fill="none" xmlns="http://www.w3.org/2000/svg">
<path d="M21 34.5H8.25C7.65326 34.5 7.08097 34.2629 6.65901 33.841C6.23705 33.419 6 32.8467 6 32.25V12.75C6 12.1533 6.23705 11.581 6.65901 11.159C7.08097 10.7371 7.65326 10.5 8.25 10.5H33.75C34.3467 10.5 34.919 10.7371 35.341 11.159C35.7629 11.581 36 12.1533 36 12.75V21.7943" stroke="#5B89F8" stroke-width="3" stroke-linecap="round" stroke-linejoin="round"/>
<path d="M6 12.75C6 12.1533 6.23705 11.581 6.65901 11.159C7.08097 10.7371 7.65326 10.5 8.25 10.5H33.75C34.3467 10.5 34.919 10.7371 35.341 11.159C35.7629 11.581 36 12.1533 36 12.75V19.5H6V12.75Z" stroke="#5B89F8" stroke-width="3"/>
<path d="M9 15C9 14.1716 9.67157 13.5 10.5 13.5C11.3284 13.5 12 14.1716 12 15C12 15.8284 11.3284 16.5 10.5 16.5C9.67157 16.5 9 15.8284 9 15Z" fill="#5B89F8"/>
<path d="M13.5 15C13.5 14.1716 14.1716 13.5 15 13.5C15.8284 13.5 16.5 14.1716 16.5 15C16.5 15.8284 15.8284 16.5 15 16.5C14.1716 16.5 13.5 15.8284 13.5 15Z" fill="#5B89F8"/>
<path d="M28.2857 25.5C25.9286 25.5 24 27.4714 24 29.8929C24 31.1143 24.4714 32.1857 25.2643 33L32.5714 40.5L39.9 33C40.6714 32.2071 41.1429 31.0929 41.1429 29.8929C41.1429 27.4714 39.2143 25.5 36.8571 25.5C35.7 25.5 34.6071 25.9929 33.8357 26.7857L32.5714 28.0714L31.3286 26.8071C30.9334 26.3983 30.4609 26.0722 29.9385 25.8478C29.4161 25.6234 28.8543 25.5051 28.2857 25.5Z" fill="#5B89F8"/>
</svg>
