<svg width="48" height="48" viewBox="0 0 48 48" fill="none" xmlns="http://www.w3.org/2000/svg">
<path d="M28.6362 12.3266H28.0194C28.2089 11.8204 28.3105 11.2856 28.3199 10.7452C28.2867 9.45885 27.7459 8.2379 26.8155 7.34899C25.8851 6.46009 24.6408 5.97546 23.3542 6.00096C22.09 6.02826 20.8563 6.39497 19.7824 7.06269C18.7084 7.73041 17.8338 8.67458 17.25 9.79634C16.6662 8.67458 15.7916 7.73041 14.7176 7.06269C13.6437 6.39497 12.41 6.02826 11.1458 6.00096C9.85924 5.97546 8.61491 6.46009 7.68452 7.34899C6.75414 8.2379 6.2133 9.45885 6.18013 10.7452C6.18947 11.2856 6.29109 11.8204 6.4806 12.3266H5.86385C5.44771 12.3661 5.04353 12.4877 4.67468 12.6844C4.30584 12.8811 3.97963 13.1489 3.71493 13.4724C3.45023 13.796 3.25229 14.1687 3.13255 14.5692C3.0128 14.9697 2.97364 15.39 3.01731 15.8057V21.4988C2.94343 22.2646 3.14031 23.032 3.57371 23.6676C4.0071 24.3033 4.64958 24.7669 5.38942 24.9779V31.8886C5.43824 32.6059 5.76429 33.2761 6.29854 33.7572C6.83279 34.2383 7.5333 34.4926 8.25178 34.4663H26.2482C26.9771 34.4921 27.6866 34.2291 28.2226 33.7346C28.7586 33.24 29.0777 32.5539 29.1106 31.8254V24.9779C29.8504 24.7669 30.4929 24.3033 30.9263 23.6676C31.3597 23.032 31.5566 22.2646 31.4827 21.4988V15.8057C31.5264 15.39 31.4872 14.9697 31.3675 14.5692C31.2477 14.1687 31.0498 13.796 30.7851 13.4724C30.5204 13.1489 30.1942 12.8811 29.8253 12.6844C29.4565 12.4877 29.0523 12.3661 28.6362 12.3266ZM28.3199 15.8057V21.4988C28.3376 21.6035 28.3376 21.7104 28.3199 21.8151H18.8314V15.4894H28.3199C28.3376 15.5941 28.3376 15.701 28.3199 15.8057ZM23.3542 9.16378C23.8022 9.13767 24.2425 9.28893 24.5799 9.58486C24.9172 9.88079 25.1246 10.2976 25.157 10.7452C25.1246 11.1928 24.9172 11.6096 24.5799 11.9055C24.2425 12.2014 23.8022 12.3527 23.3542 12.3266H19.464C19.7407 11.4818 20.2546 10.7344 20.9444 10.1736C21.6342 9.61275 22.4707 9.26222 23.3542 9.16378ZM9.34295 10.7452C9.37543 10.2976 9.58277 9.88079 9.92012 9.58486C10.2575 9.28893 10.6978 9.13767 11.1458 9.16378C12.0265 9.26509 12.8596 9.61692 13.5464 10.1775C14.2331 10.7381 14.7446 11.484 15.0202 12.3266H11.1458C10.6978 12.3527 10.2575 12.2014 9.92012 11.9055C9.58277 11.6096 9.37543 11.1928 9.34295 10.7452ZM6.18013 15.8057C6.16243 15.701 6.16243 15.5941 6.18013 15.4894H15.6686V21.8151H6.18013C6.16243 21.7104 6.16243 21.6035 6.18013 21.4988V15.8057ZM8.55224 24.9779H15.6686V31.3035H8.55224V24.9779ZM18.8314 31.3035V24.9779H25.9478V31.3035H18.8314Z" fill="#5B89F8"/>
<path d="M28.6362 12.3266H28.0194C28.2089 11.8204 28.3105 11.2856 28.3199 10.7452C28.2867 9.45885 27.7459 8.2379 26.8155 7.34899C25.8851 6.46009 24.6408 5.97546 23.3542 6.00096C22.09 6.02826 20.8563 6.39497 19.7824 7.06269C18.7084 7.73041 17.8338 8.67458 17.25 9.79634C16.6662 8.67458 15.7916 7.73041 14.7176 7.06269C13.6437 6.39497 12.41 6.02826 11.1458 6.00096C9.85924 5.97546 8.61491 6.46009 7.68452 7.34899C6.75414 8.2379 6.2133 9.45885 6.18013 10.7452C6.18947 11.2856 6.29109 11.8204 6.4806 12.3266H5.86385C5.44771 12.3661 5.04353 12.4877 4.67468 12.6844C4.30584 12.8811 3.97963 13.1489 3.71493 13.4724C3.45023 13.796 3.25229 14.1687 3.13255 14.5692C3.0128 14.9697 2.97364 15.39 3.01731 15.8057V21.4988C2.94343 22.2646 3.14031 23.032 3.57371 23.6676C4.0071 24.3033 4.64958 24.7669 5.38942 24.9779V31.8886C5.43824 32.6059 5.76429 33.2761 6.29854 33.7572C6.83279 34.2383 7.5333 34.4926 8.25178 34.4663H26.2482C26.9771 34.4921 27.6866 34.2291 28.2226 33.7346C28.7586 33.24 29.0777 32.5539 29.1106 31.8254V24.9779C29.8504 24.7669 30.4929 24.3033 30.9263 23.6676C31.3597 23.032 31.5566 22.2646 31.4827 21.4988V15.8057C31.5264 15.39 31.4872 14.9697 31.3675 14.5692C31.2477 14.1687 31.0498 13.796 30.7851 13.4724C30.5204 13.1489 30.1942 12.8811 29.8253 12.6844C29.4565 12.4877 29.0523 12.3661 28.6362 12.3266ZM28.3199 15.8057V21.4988C28.3376 21.6035 28.3376 21.7104 28.3199 21.8151H18.8314V15.4894H28.3199C28.3376 15.5941 28.3376 15.701 28.3199 15.8057ZM23.3542 9.16378C23.8022 9.13767 24.2425 9.28893 24.5799 9.58486C24.9172 9.88079 25.1246 10.2976 25.157 10.7452C25.1246 11.1928 24.9172 11.6096 24.5799 11.9055C24.2425 12.2014 23.8022 12.3527 23.3542 12.3266H19.464C19.7407 11.4818 20.2546 10.7344 20.9444 10.1736C21.6342 9.61275 22.4707 9.26222 23.3542 9.16378ZM9.34295 10.7452C9.37543 10.2976 9.58277 9.88079 9.92012 9.58486C10.2575 9.28893 10.6978 9.13767 11.1458 9.16378C12.0265 9.26509 12.8596 9.61692 13.5464 10.1775C14.2331 10.7381 14.7446 11.484 15.0202 12.3266H11.1458C10.6978 12.3527 10.2575 12.2014 9.92012 11.9055C9.58277 11.6096 9.37543 11.1928 9.34295 10.7452ZM6.18013 15.8057C6.16243 15.701 6.16243 15.5941 6.18013 15.4894H15.6686V21.8151H6.18013C6.16243 21.7104 6.16243 21.6035 6.18013 21.4988V15.8057ZM8.55224 24.9779H15.6686V31.3035H8.55224V24.9779ZM18.8314 31.3035V24.9779H25.9478V31.3035H18.8314Z" fill="#5B89F8"/>
<path d="M42.804 32.9372L39.499 34.0296L42.6389 37.6915C42.8571 37.9452 42.8275 38.3203 42.5918 38.5364L41.2807 39.7103C41.0364 39.9293 40.6691 39.8927 40.4538 39.6479L37.4711 36.1711L35.6891 39.8406C35.4516 40.3296 34.7738 40.2372 34.6134 39.7519L30.1884 26.3655C30.0196 25.8546 30.5578 25.4003 30.9993 25.6532L42.8727 31.8382C43.3452 32.0684 43.2871 32.7775 42.804 32.9372Z" fill="#5B89F8"/>
</svg>
