<svg width="40" height="40" viewBox="0 0 40 40" fill="none" xmlns="http://www.w3.org/2000/svg">
<path d="M14.2179 12.4521C13.7297 11.9639 12.9383 11.9639 12.4501 12.4521C11.9619 12.9402 11.9619 13.7317 12.4501 14.2198L14.0662 15.8359L12.4501 17.4521C11.9619 17.9402 11.9619 18.7317 12.4501 19.2198C12.9383 19.708 13.7297 19.708 14.2179 19.2198L15.834 17.6037L17.4501 19.2198C17.9383 19.708 18.7297 19.708 19.2179 19.2198C19.706 18.7317 19.706 17.9402 19.2179 17.4521L17.6018 15.8359L19.2179 14.2198C19.706 13.7317 19.706 12.9402 19.2179 12.4521C18.7297 11.9639 17.9383 11.9639 17.4501 12.4521L15.834 14.0682L14.2179 12.4521Z" fill="#535965"/>
<path fill-rule="evenodd" clip-rule="evenodd" d="M23.4937 8.17301C21.462 6.14137 18.7065 5 15.8333 5C12.9602 5 10.2047 6.14137 8.17301 8.17301C6.14137 10.2047 5 12.9602 5 15.8333C5 18.7065 6.14137 21.462 8.17301 23.4937C10.2047 25.5253 12.9602 26.6667 15.8333 26.6667C18.4178 26.6665 20.9176 25.7446 22.8833 24.0667L23.3333 24.5167V25.8333L31.6667 34.1667L34.1667 31.6667L25.8333 23.3333H24.5167L24.0667 22.8833C25.6833 20.9833 26.6667 18.5167 26.6667 15.8333C26.6667 12.9602 25.5253 10.2047 23.4937 8.17301ZM8.33333 15.8333C8.33333 11.6667 11.6667 8.33333 15.8333 8.33333C20 8.33333 23.3333 11.6667 23.3333 15.8333C23.3333 20 20 23.3333 15.8333 23.3333C11.6667 23.3333 8.33333 20 8.33333 15.8333Z" fill="#535965"/>
</svg>
