<svg width="41" height="40" viewBox="0 0 41 40" fill="none" xmlns="http://www.w3.org/2000/svg">
<path fill-rule="evenodd" clip-rule="evenodd" d="M9.5625 3.3335C9.1481 3.3335 8.75067 3.49812 8.45765 3.79114C8.16462 4.08417 8 4.4816 8 4.896C8 5.3104 8.16462 5.70782 8.45765 6.00085C8.75067 6.29388 9.1481 6.4585 9.5625 6.4585H10.0833V7.69391C10.0833 10.3189 11.125 12.8356 12.9812 14.6918L18.2917 20.0002L12.9833 25.3085C12.0641 26.2273 11.3348 27.3183 10.8372 28.519C10.3397 29.7197 10.0835 31.0067 10.0833 32.3064V33.5418H9.5625C9.1481 33.5418 8.75067 33.7064 8.45765 33.9995C8.16462 34.2925 8 34.6899 8 35.1043C8 35.5187 8.16462 35.9162 8.45765 36.2092C8.75067 36.5022 9.1481 36.6668 9.5625 36.6668H31.4375C31.8519 36.6668 32.2493 36.5022 32.5424 36.2092C32.8354 35.9162 33 35.5187 33 35.1043C33 34.6899 32.8354 34.2925 32.5424 33.9995C32.2493 33.7064 31.8519 33.5418 31.4375 33.5418H30.9167V32.3064C30.9167 29.6814 29.875 27.1647 28.0187 25.3085L22.7083 20.0002L28.0167 14.6918C28.9359 13.773 29.6652 12.6821 30.1628 11.4813C30.6603 10.2806 30.9165 8.99365 30.9167 7.69391V6.4585H31.4375C31.8519 6.4585 32.2493 6.29388 32.5424 6.00085C32.8354 5.70782 33 5.3104 33 4.896C33 4.4816 32.8354 4.08417 32.5424 3.79114C32.2493 3.49812 31.8519 3.3335 31.4375 3.3335H9.5625ZM27.7917 6.4585H13.2083V7.69391C13.2083 9.13141 13.6646 10.5189 14.4958 11.6668H26.5042C27.3412 10.5113 27.7918 9.1208 27.7917 7.69391V6.4585ZM20.5 17.7918L17.5 14.7918H23.5L20.5 17.7918ZM27.7917 33.5418V32.3064C27.7916 30.5107 27.0781 28.7886 25.8083 27.5189L20.5 22.2085L15.1917 27.5168C13.9219 28.7865 13.2084 30.5086 13.2083 32.3043V33.5397L27.7917 33.5418Z" fill="#69B56D" fill-opacity="0.5"/>
</svg>
